<?xml version="1.0" standalone="no"?>
<!DOCTYPE svg PUBLIC "-//W3C//DTD SVG 20010904//EN"
 "http://www.w3.org/TR/2001/REC-SVG-20010904/DTD/svg10.dtd">
<svg version="1.0" xmlns="http://www.w3.org/2000/svg"
 width="300.000000pt" height="300.000000pt" viewBox="0 0 300.000000 300.000000"
 preserveAspectRatio="xMidYMid meet">
<metadata>
Created by potrace 1.10, written by Peter Selinger 2001-2011
</metadata>
<g transform="translate(0.000000,300.000000) scale(0.100000,-0.100000)"
fill="#000000" stroke="none">
<path d="M1453 2563 c15 -2 39 -2 55 0 15 2 2 4 -28 4 -30 0 -43 -2 -27 -4z"/>
<path d="M1363 2553 c9 -2 23 -2 30 0 6 3 -1 5 -18 5 -16 0 -22 -2 -12 -5z"/>
<path d="M1573 2553 c9 -2 23 -2 30 0 6 3 -1 5 -18 5 -16 0 -22 -2 -12 -5z"/>
<path d="M1308 2543 c7 -3 16 -2 19 1 4 3 -2 6 -13 5 -11 0 -14 -3 -6 -6z"/>
<path d="M1628 2543 c6 -2 18 -2 25 0 6 3 1 5 -13 5 -14 0 -19 -2 -12 -5z"/>
<path d="M1235 2525 c-39 -17 -21 -18 25 0 19 7 28 14 20 14 -8 0 -28 -6 -45
-14z"/>
<path d="M1700 2525 c46 -18 64 -17 25 0 -16 8 -37 14 -45 14 -8 0 1 -7 20
-14z"/>
<path d="M1388 2523 c12 -2 32 -2 45 0 12 2 2 4 -23 4 -25 0 -35 -2 -22 -4z"/>
<path d="M1523 2523 c15 -2 37 -2 50 0 12 2 0 4 -28 4 -27 0 -38 -2 -22 -4z"/>
<path d="M1328 2513 c7 -3 16 -2 19 1 4 3 -2 6 -13 5 -11 0 -14 -3 -6 -6z"/>
<path d="M1608 2513 c6 -2 18 -2 25 0 6 3 1 5 -13 5 -14 0 -19 -2 -12 -5z"/>
<path d="M1133 2481 c-126 -69 -223 -163 -293 -280 -22 -37 -40 -71 -40 -76 0
-6 18 21 40 58 75 129 171 222 302 293 35 18 59 34 53 34 -5 0 -34 -13 -62
-29z"/>
<path d="M1288 2503 c7 -3 16 -2 19 1 4 3 -2 6 -13 5 -11 0 -14 -3 -6 -6z"/>
<path d="M1658 2503 c7 -3 16 -2 19 1 4 3 -2 6 -13 5 -11 0 -14 -3 -6 -6z"/>
<path d="M1820 2475 c129 -69 241 -183 308 -312 20 -39 38 -70 40 -68 2 1 -10
29 -26 62 -67 132 -186 255 -312 322 -32 17 -62 31 -66 31 -5 0 20 -16 56 -35z"/>
<path d="M1729 2479 c24 -11 46 -18 48 -15 4 4 -73 36 -85 35 -4 0 13 -9 37
-20z"/>
<path d="M1210 2480 c-8 -5 -10 -10 -5 -10 6 0 17 5 25 10 8 5 11 10 5 10 -5
0 -17 -5 -25 -10z"/>
<path d="M1090 2416 c-86 -56 -188 -168 -235 -256 -20 -40 -35 -73 -33 -75 2
-2 20 29 41 70 49 94 139 192 235 255 42 28 72 50 67 50 -6 -1 -39 -20 -75
-44z"/>
<path d="M1810 2447 c0 -3 19 -17 43 -30 93 -55 184 -154 248 -270 16 -28 29
-48 29 -43 0 31 -83 151 -154 221 -68 67 -166 139 -166 122z"/>
<path d="M1456 2240 c-9 -22 -16 -46 -16 -53 1 -6 10 10 20 37 11 28 18 51 16
53 -2 2 -11 -14 -20 -37z"/>
<path d="M1491 2275 c-1 -5 8 -32 19 -60 10 -27 19 -43 19 -35 0 17 -38 110
-38 95z"/>
<path d="M1432 2145 c0 -16 2 -22 5 -12 2 9 2 23 0 30 -3 6 -5 -1 -5 -18z"/>
<path d="M1532 2098 l-2 -58 48 36 c26 20 49 39 52 42 9 10 -24 -10 -57 -35
l-32 -23 -4 47 c-3 48 -3 48 -5 -9z"/>
<path d="M1272 2120 c0 -14 2 -19 5 -12 2 6 2 18 0 25 -3 6 -5 1 -5 -13z"/>
<path d="M1325 2118 c22 -11 55 -34 72 -51 18 -17 35 -28 38 -25 11 11 -117
99 -142 98 -4 -1 10 -10 32 -22z"/>
<path d="M1650 2130 c-8 -5 -10 -10 -5 -10 6 0 17 5 25 10 8 5 11 10 5 10 -5
0 -17 -5 -25 -10z"/>
<path d="M1686 2114 c-4 -14 -5 -28 -3 -31 3 -2 8 8 11 23 4 14 5 28 3 31 -3
2 -8 -8 -11 -23z"/>
<path d="M771 2045 c-12 -37 -21 -75 -20 -84 0 -9 11 20 24 64 13 44 22 82 20
83 -2 2 -13 -26 -24 -63z"/>
<path d="M1280 2085 c0 -5 5 -17 10 -25 5 -8 10 -10 10 -5 0 6 -5 17 -10 25
-5 8 -10 11 -10 5z"/>
<path d="M2131 2090 c0 -3 8 -32 19 -65 12 -33 18 -46 16 -29 -5 29 -33 106
-35 94z"/>
<path d="M1670 2061 c0 -5 -16 -30 -35 -55 -40 -53 -41 -56 -17 -55 9 0 12 3
5 5 -8 4 0 21 23 50 31 42 41 64 29 64 -3 0 -5 -4 -5 -9z"/>
<path d="M1315 2015 c10 -16 25 -34 34 -39 13 -8 12 -10 -4 -17 -19 -7 -18 -8
3 -8 30 -1 28 7 -15 54 -30 32 -33 34 -18 10z"/>
<path d="M2191 2004 c0 -11 3 -14 6 -6 3 7 2 16 -1 19 -3 4 -6 -2 -5 -13z"/>
<path d="M791 1994 c0 -11 3 -14 6 -6 3 7 2 16 -1 19 -3 4 -6 -2 -5 -13z"/>
<path d="M2202 1960 c0 -14 2 -19 5 -12 2 6 2 18 0 25 -3 6 -5 1 -5 -13z"/>
<path d="M782 1945 c0 -16 2 -22 5 -12 2 9 2 23 0 30 -3 6 -5 -1 -5 -18z"/>
<path d="M1030 1940 c-11 -11 -20 -32 -19 -47 1 -26 2 -26 9 6 18 74 67 66
100 -17 7 -18 14 -31 17 -29 2 2 -5 24 -16 49 -26 61 -56 73 -91 38z"/>
<path d="M1882 1953 c-14 -5 -56 -93 -48 -100 2 -2 12 16 21 41 20 52 47 66
76 40 10 -9 19 -12 19 -6 0 21 -41 36 -68 25z"/>
<path d="M2172 1935 c0 -16 2 -22 5 -12 2 9 2 23 0 30 -3 6 -5 -1 -5 -18z"/>
<path d="M1288 1939 c-10 -5 -18 -14 -18 -18 0 -9 45 -31 63 -31 7 1 -4 8 -23
16 l-35 15 25 14 c14 8 21 14 15 14 -5 0 -18 -4 -27 -10z"/>
<path d="M1650 1940 c8 -5 20 -10 25 -10 6 0 3 5 -5 10 -8 5 -19 10 -25 10 -5
0 -3 -5 5 -10z"/>
<path d="M743 1895 c0 -22 2 -30 4 -17 2 12 2 30 0 40 -3 9 -5 -1 -4 -23z"/>
<path d="M1676 1915 c-11 -8 -15 -15 -9 -15 6 0 16 7 23 15 16 19 11 19 -14 0z"/>
<path d="M2214 1825 c0 -55 1 -76 3 -47 2 29 2 74 0 100 -2 26 -3 2 -3 -53z"/>
<path d="M773 1825 c0 -44 2 -61 4 -37 2 23 2 59 0 80 -2 20 -4 1 -4 -43z"/>
<path d="M1372 1881 c21 -5 25 -9 18 -21 -5 -8 -10 -19 -9 -25 0 -11 28 35 29
48 0 4 -15 6 -32 6 -32 -1 -32 -2 -6 -8z"/>
<path d="M1554 1882 c5 -8 66 -4 66 4 0 2 -16 4 -36 4 -19 0 -33 -4 -30 -8z"/>
<path d="M2183 1825 c0 -33 2 -45 4 -27 2 18 2 45 0 60 -2 15 -4 0 -4 -33z"/>
<path d="M1430 1849 c-19 -11 -27 -19 -18 -19 9 0 20 5 23 10 13 21 24 8 27
-32 2 -35 7 -43 23 -43 16 0 20 7 21 40 l1 40 -4 -37 c-6 -58 -31 -50 -35 11
l-3 48 -35 -18z"/>
<path d="M1519 1850 c27 -23 52 -23 58 0 4 13 3 13 -6 0 -9 -13 -15 -13 -43 3
l-33 17 24 -20z"/>
<path d="M1179 1843 c-11 -15 -11 -16 1 -5 8 6 22 12 31 12 24 0 167 -176 181
-224 7 -21 14 -34 16 -28 7 22 -29 82 -102 170 -79 93 -102 107 -127 75z"/>
<path d="M1668 1774 c-74 -87 -107 -137 -107 -164 0 -8 8 4 19 28 22 49 157
212 176 212 7 0 20 -7 28 -16 9 -8 16 -11 16 -5 0 11 -32 31 -49 31 -5 0 -43
-39 -83 -86z"/>
<path d="M1942 1830 c0 -19 2 -27 5 -17 2 9 2 25 0 35 -3 9 -5 1 -5 -18z"/>
<path d="M1022 1810 c0 -19 2 -27 5 -17 2 9 2 25 0 35 -3 9 -5 1 -5 -18z"/>
<path d="M1160 1809 c0 -19 50 -99 76 -119 10 -8 4 4 -14 27 -18 22 -39 56
-47 75 -8 18 -14 26 -15 17z"/>
<path d="M743 1755 c0 -22 2 -30 4 -17 2 12 2 30 0 40 -3 9 -5 -1 -4 -23z"/>
<path d="M1790 1783 c0 -6 -19 -34 -41 -62 -31 -38 -39 -55 -31 -63 9 -9 17
-6 33 8 33 29 79 95 79 113 -1 9 -7 3 -14 -14 -18 -40 -82 -112 -92 -102 -4 4
4 20 18 35 35 38 62 81 54 89 -3 3 -6 2 -6 -4z"/>
<path d="M1932 1765 c0 -16 2 -22 5 -12 2 9 2 23 0 30 -3 6 -5 -1 -5 -18z"/>
<path d="M1140 1775 c0 -14 27 -53 63 -92 32 -34 47 -41 47 -22 0 5 -4 8 -8 5
-11 -7 -53 37 -81 84 -11 19 -21 30 -21 25z"/>
<path d="M1032 1750 c0 -14 2 -19 5 -12 2 6 2 18 0 25 -3 6 -5 1 -5 -13z"/>
<path d="M2172 1715 c0 -16 2 -22 5 -12 2 9 2 23 0 30 -3 6 -5 -1 -5 -18z"/>
<path d="M782 1705 c0 -16 2 -22 5 -12 2 9 2 23 0 30 -3 6 -5 -1 -5 -18z"/>
<path d="M1921 1714 c0 -11 3 -14 6 -6 3 7 2 16 -1 19 -3 4 -6 -2 -5 -13z"/>
<path d="M1041 1704 c0 -11 3 -14 6 -6 3 7 2 16 -1 19 -3 4 -6 -2 -5 -13z"/>
<path d="M2202 1690 c0 -14 2 -19 5 -12 2 6 2 18 0 25 -3 6 -5 1 -5 -13z"/>
<path d="M751 1689 c-1 -20 39 -152 44 -147 2 1 -7 39 -20 83 -13 44 -24 73
-24 64z"/>
<path d="M1911 1674 c0 -11 3 -14 6 -6 3 7 2 16 -1 19 -3 4 -6 -2 -5 -13z"/>
<path d="M1051 1670 c-1 -38 42 -101 108 -161 46 -42 71 -72 71 -86 0 -30 10
-53 23 -53 7 0 7 4 -1 12 -7 7 -12 26 -12 44 0 25 -8 37 -38 57 -62 44 -111
100 -132 153 -10 27 -19 42 -19 34z"/>
<path d="M2161 1664 c0 -11 3 -14 6 -6 3 7 2 16 -1 19 -3 4 -6 -2 -5 -13z"/>
<path d="M791 1654 c0 -11 3 -14 6 -6 3 7 2 16 -1 19 -3 4 -6 -2 -5 -13z"/>
<path d="M2191 1644 c0 -11 3 -14 6 -6 3 7 2 16 -1 19 -3 4 -6 -2 -5 -13z"/>
<path d="M2137 1587 c-41 -130 -169 -285 -302 -366 -38 -24 -61 -40 -51 -37
43 15 158 100 214 161 33 35 77 93 97 128 36 66 71 155 63 162 -2 3 -12 -19
-21 -48z"/>
<path d="M1876 1589 c-9 -16 -45 -52 -79 -81 -34 -28 -64 -55 -66 -60 -3 -10
21 9 91 71 41 36 83 89 76 96 -2 3 -12 -9 -22 -26z"/>
<path d="M1552 1570 c0 -14 2 -19 5 -12 2 6 2 18 0 25 -3 6 -5 1 -5 -13z"/>
<path d="M1412 1560 c0 -14 2 -19 5 -12 2 6 2 18 0 25 -3 6 -5 1 -5 -13z"/>
<path d="M820 1566 c-1 -27 84 -161 140 -220 60 -64 198 -166 224 -166 6 0
-19 17 -54 38 -97 55 -217 180 -267 277 -24 44 -43 76 -43 71z"/>
<path d="M2128 1487 c-68 -131 -180 -245 -305 -309 -34 -18 -60 -34 -58 -36 2
-2 31 10 64 28 84 45 184 130 238 203 43 60 108 175 101 182 -2 2 -20 -29 -40
-68z"/>
<path d="M1543 1500 c0 -25 2 -35 4 -22 2 12 2 32 0 45 -2 12 -4 2 -4 -23z"/>
<path d="M800 1525 c0 -20 83 -147 131 -200 55 -59 146 -128 216 -164 68 -34
64 -24 -5 13 -133 72 -226 162 -301 291 -23 38 -41 66 -41 60z"/>
<path d="M1423 1470 c0 -36 2 -50 4 -32 2 17 2 47 0 65 -2 17 -4 3 -4 -33z"/>
<path d="M1415 1380 c-3 -5 -1 -10 4 -10 6 0 11 5 11 10 0 6 -2 10 -4 10 -3 0
-8 -4 -11 -10z"/>
<path d="M1540 1380 c0 -5 5 -10 11 -10 5 0 7 5 4 10 -3 6 -8 10 -11 10 -2 0
-4 -4 -4 -10z"/>
<path d="M1715 1380 c-3 -5 -1 -10 4 -10 6 0 11 5 11 10 0 6 -2 10 -4 10 -3 0
-8 -4 -11 -10z"/>
<path d="M1210 1170 c8 -5 20 -10 25 -10 6 0 3 5 -5 10 -8 5 -19 10 -25 10 -5
0 -3 -5 5 -10z"/>
<path d="M1715 1165 c-25 -12 -26 -14 -5 -9 28 7 60 23 45 23 -5 0 -23 -6 -40
-14z"/>
<path d="M1288 1143 c7 -3 16 -2 19 1 4 3 -2 6 -13 5 -11 0 -14 -3 -6 -6z"/>
<path d="M1658 1143 c7 -3 16 -2 19 1 4 3 -2 6 -13 5 -11 0 -14 -3 -6 -6z"/>
<path d="M1235 1125 c17 -8 37 -14 45 -14 8 0 -1 7 -20 14 -46 18 -64 17 -25
0z"/>
<path d="M1328 1133 c6 -2 18 -2 25 0 6 3 1 5 -13 5 -14 0 -19 -2 -12 -5z"/>
<path d="M1608 1133 c6 -2 18 -2 25 0 6 3 1 5 -13 5 -14 0 -19 -2 -12 -5z"/>
<path d="M1700 1125 c-19 -7 -28 -14 -20 -14 8 0 29 6 45 14 39 17 21 18 -25
0z"/>
<path d="M1388 1123 c12 -2 32 -2 45 0 12 2 2 4 -23 4 -25 0 -35 -2 -22 -4z"/>
<path d="M1528 1123 c12 -2 32 -2 45 0 12 2 2 4 -23 4 -25 0 -35 -2 -22 -4z"/>
<path d="M1308 1103 c7 -3 16 -2 19 1 4 3 -2 6 -13 5 -11 0 -14 -3 -6 -6z"/>
<path d="M1628 1103 c6 -2 18 -2 25 0 6 3 1 5 -13 5 -14 0 -19 -2 -12 -5z"/>
<path d="M1363 1093 c9 -2 23 -2 30 0 6 3 -1 5 -18 5 -16 0 -22 -2 -12 -5z"/>
<path d="M1573 1093 c9 -2 23 -2 30 0 6 3 -1 5 -18 5 -16 0 -22 -2 -12 -5z"/>
<path d="M1448 1083 c18 -2 45 -2 60 0 15 2 0 4 -33 4 -33 0 -45 -2 -27 -4z"/>
<path d="M1144 937 c-2 -7 -3 -65 -2 -128 l3 -114 41 -3 c65 -5 74 11 72 126
l-2 97 -3 -94 c-2 -52 -9 -101 -15 -108 -6 -7 -28 -13 -49 -13 l-39 0 0 120 0
120 31 0 c17 0 40 -5 52 -11 21 -10 21 -10 3 5 -24 19 -85 21 -92 3z"/>
<path d="M1286 928 c-12 -17 -16 -45 -14 -113 l2 -90 5 95 c3 52 10 101 14
108 11 16 62 16 75 -1 6 -7 13 -46 15 -87 l3 -75 2 77 c2 58 -2 80 -14 92 -23
24 -70 20 -88 -6z"/>
<path d="M1422 938 c-7 -7 -12 -19 -11 -27 0 -10 4 -7 9 7 7 17 17 22 45 22
28 0 38 -5 45 -22 5 -14 9 -17 9 -7 1 8 -4 20 -11 27 -16 16 -70 16 -86 0z"/>
<path d="M1547 943 c-4 -3 -7 -62 -7 -130 l0 -123 44 0 c30 0 48 6 57 18 11
14 11 15 -1 5 -8 -7 -31 -13 -52 -13 l-38 0 0 119 0 120 33 4 32 4 -31 1 c-17
1 -34 -1 -37 -5z"/>
<path d="M1672 818 l2 -133 3 128 c3 102 6 127 18 127 11 0 15 -19 18 -80 l3
-80 0 82 c-1 78 -2 83 -23 86 -23 3 -23 3 -21 -130z"/>
<path d="M1734 936 c-3 -7 -3 -38 -1 -67 l3 -54 2 63 2 62 40 0 c22 0 40 -4
40 -10 0 -5 -11 -10 -25 -10 -23 0 -25 -4 -25 -41 0 -32 4 -42 20 -46 11 -3
20 -9 20 -14 0 -5 -9 -9 -20 -9 -17 0 -20 -7 -20 -45 0 -44 0 -45 33 -44 30 2
30 2 5 6 -24 4 -28 9 -28 39 0 27 4 34 20 34 13 0 20 7 20 20 0 13 -7 20 -20
20 -16 0 -20 7 -20 35 0 31 3 35 25 35 18 0 25 5 25 20 0 17 -7 20 -45 20 -29
0 -48 -5 -51 -14z"/>
<path d="M1630 925 c9 -10 11 -32 7 -65 -3 -27 -3 -51 1 -54 9 -6 14 91 6 116
-3 10 -10 18 -16 18 -6 0 -6 -6 2 -15z"/>
<path d="M1314 907 c-3 -8 -4 -51 -2 -98 3 -72 6 -84 21 -85 12 -1 13 -1 2 3
-12 4 -15 23 -15 94 0 86 15 123 23 57 4 -32 4 -32 5 5 2 27 -2 37 -13 37 -9
0 -18 -6 -21 -13z"/>
<path d="M1458 913 c7 -3 16 -2 19 1 4 3 -2 6 -13 5 -11 0 -14 -3 -6 -6z"/>
<path d="M1182 817 c-2 -89 0 -98 16 -95 15 3 17 16 18 93 l0 90 -3 -87 c-2
-49 -8 -88 -13 -88 -5 0 -11 42 -13 93 l-3 92 -2 -98z"/>
<path d="M1583 875 c0 -22 2 -30 4 -17 2 12 2 30 0 40 -3 9 -5 -1 -4 -23z"/>
<path d="M1605 875 c0 -18 3 -31 8 -28 4 2 7 15 7 28 0 13 -3 26 -7 28 -5 3
-8 -10 -8 -28z"/>
<path d="M1443 845 c0 -33 2 -45 4 -27 2 18 2 45 0 60 -2 15 -4 0 -4 -33z"/>
<path d="M1482 813 c-2 -68 -5 -82 -19 -86 -17 -4 -17 -5 0 -6 24 -1 28 15 24
100 l-3 74 -2 -82z"/>
<path d="M1523 775 c0 -27 2 -38 4 -22 2 15 2 37 0 50 -2 12 -4 0 -4 -28z"/>
<path d="M1580 765 c0 -39 3 -46 18 -43 13 2 17 13 17 43 0 30 -4 41 -17 43
-15 3 -18 -4 -18 -43z m30 0 c0 -19 -4 -35 -10 -35 -5 0 -10 16 -10 35 0 19 5
35 10 35 6 0 10 -16 10 -35z"/>
<path d="M1652 760 c0 -19 2 -27 5 -17 2 9 2 25 0 35 -3 9 -5 1 -5 -18z"/>
<path d="M1732 750 c0 -19 2 -27 5 -17 2 9 2 25 0 35 -3 9 -5 1 -5 -18z"/>
<path d="M1711 754 c0 -11 3 -14 6 -6 3 7 2 16 -1 19 -3 4 -6 -2 -5 -13z"/>
<path d="M1381 728 c-1 -9 -9 -22 -18 -27 -10 -6 -13 -11 -7 -11 17 0 37 27
31 42 -4 8 -6 7 -6 -4z"/>
<path d="M1411 729 c-1 -19 26 -45 36 -35 3 3 1 6 -6 6 -6 0 -16 10 -21 23 -6
15 -9 17 -9 6z"/>
<path d="M1292 704 c10 -10 20 -16 22 -13 3 3 -5 11 -17 18 -21 13 -21 12 -5
-5z"/>
<path d="M1496 705 c-11 -8 -15 -15 -9 -15 6 0 16 7 23 15 16 19 11 19 -14 0z"/>
<path d="M1795 700 l-40 -7 37 -2 c20 0 40 4 43 9 3 6 5 9 3 9 -2 -1 -21 -5
-43 -9z"/>
<path d="M836 575 c-6 -17 16 -31 33 -21 13 9 2 36 -14 36 -7 0 -16 -7 -19
-15z m29 -5 c3 -5 -1 -10 -10 -10 -9 0 -13 5 -10 10 3 6 8 10 10 10 2 0 7 -4
10 -10z"/>
<path d="M975 580 c-4 -6 -10 -8 -15 -5 -5 3 -12 0 -16 -6 -4 -8 -3 -9 4 -5 7
4 12 1 12 -8 0 -19 -26 -21 -33 -3 -3 7 -6 5 -6 -5 -1 -28 38 -22 49 7 5 14
17 25 27 25 15 0 16 -2 3 -10 -13 -8 -12 -10 3 -10 9 0 17 7 17 15 0 17 -35
21 -45 5z"/>
<path d="M2045 580 c-9 -15 4 -30 23 -29 15 1 15 2 0 6 -10 2 -18 9 -18 15 0
5 7 7 16 4 8 -3 12 -2 9 4 -8 13 -22 13 -30 0z"/>
<path d="M527 538 c-9 -23 -15 -43 -13 -45 2 -2 11 15 20 38 9 23 15 43 13 45
-2 2 -11 -15 -20 -38z"/>
<path d="M581 570 c0 -8 4 -22 9 -30 12 -18 12 -2 0 25 -6 13 -9 15 -9 5z"/>
<path d="M692 508 l-2 -78 43 2 42 1 -37 4 -37 4 -4 72 -3 72 -2 -77z"/>
<path d="M791 561 c13 -11 26 -17 29 -14 6 6 -30 33 -43 33 -5 0 1 -9 14 -19z"/>
<path d="M896 558 c-19 -32 -8 -121 17 -126 14 -3 17 4 15 45 l-1 48 -4 -42
c-2 -24 -8 -43 -13 -43 -13 0 -16 91 -3 117 15 29 8 30 -11 1z"/>
<path d="M1542 507 l-2 -78 63 2 c39 1 68 7 79 17 16 13 18 13 24 -2 3 -9 13
-16 21 -16 10 0 6 8 -12 22 -25 19 -28 20 -37 5 -5 -10 -14 -17 -20 -17 -6 0
-3 12 7 26 16 25 16 27 -1 43 -17 15 -17 15 -5 -1 9 -13 9 -21 1 -35 -17 -27
-77 -19 -83 11 -4 17 -5 16 -6 -6 -1 -23 3 -27 32 -31 28 -3 27 -4 -10 -5
l-42 -2 -4 73 -3 72 -2 -78z"/>
<path d="M722 508 c-2 -54 -1 -58 21 -57 16 1 17 3 5 6 -13 3 -18 18 -21 56
l-3 52 -2 -57z"/>
<path d="M760 556 c0 -2 7 -7 16 -10 8 -3 12 -2 9 4 -6 10 -25 14 -25 6z"/>
<path d="M1412 544 c-6 -7 -18 -12 -25 -10 -6 1 -9 1 -4 -1 12 -8 8 -91 -5
-96 -8 -3 -6 -6 5 -6 13 -1 17 7 17 41 0 25 7 49 17 60 9 10 14 20 12 22 -2 2
-10 -2 -17 -10z"/>
<path d="M1572 540 c0 -14 2 -19 5 -12 2 6 2 18 0 25 -3 6 -5 1 -5 -13z"/>
<path d="M551 524 c-6 -15 -10 -29 -7 -31 2 -2 7 5 11 18 6 17 9 19 16 8 5 -8
9 -9 9 -4 0 6 -4 16 -8 23 -6 9 -12 5 -21 -14z"/>
<path d="M980 545 c0 -1 11 -10 24 -18 22 -15 25 -15 38 1 12 15 11 16 -4 3
-10 -7 -18 -9 -18 -3 0 5 -9 12 -20 15 -11 3 -20 4 -20 2z"/>
<path d="M848 533 c7 -3 16 -2 19 1 4 3 -2 6 -13 5 -11 0 -14 -3 -6 -6z"/>
<path d="M1094 524 c18 -18 21 -34 6 -34 -5 0 -10 8 -11 18 0 10 -3 12 -6 5
-2 -7 -12 -13 -20 -13 -13 0 -14 2 -2 18 13 15 12 16 -3 3 -10 -7 -18 -21 -18
-30 0 -13 8 -16 40 -13 22 2 40 8 40 14 0 16 -20 48 -31 48 -6 0 -3 -7 5 -16z"/>
<path d="M1138 533 c6 -2 18 -2 25 0 6 3 1 5 -13 5 -14 0 -19 -2 -12 -5z"/>
<path d="M1190 529 c0 -4 -9 -9 -20 -12 -15 -4 -20 -14 -20 -40 0 -20 -6 -38
-12 -40 -8 -3 -6 -6 5 -6 13 -1 17 7 17 39 0 28 4 40 14 40 8 0 17 -8 19 -17
2 -11 3 -9 2 4 -1 13 6 25 19 31 21 10 21 10 -1 9 -13 -1 -23 -4 -23 -8z"/>
<path d="M1260 536 c0 -2 7 -9 15 -16 13 -11 14 -10 9 4 -5 14 -24 23 -24 12z"/>
<path d="M1302 488 c2 -39 7 -53 18 -53 10 0 17 13 20 40 4 27 10 39 19 37 12
-3 12 0 1 12 -7 9 -23 16 -37 16 -23 0 -24 -3 -21 -52z m41 35 c-8 -2 -13 -22
-13 -44 0 -21 -4 -39 -10 -39 -5 0 -10 20 -10 45 0 40 2 45 23 44 12 0 16 -3
10 -6z"/>
<path d="M1450 536 c0 -2 7 -6 15 -10 8 -3 15 -1 15 4 0 6 -7 10 -15 10 -8 0
-15 -2 -15 -4z"/>
<path d="M1655 533 c11 -3 25 -13 32 -22 11 -15 12 -14 19 2 3 10 13 16 20 13
8 -3 14 -1 14 4 0 16 -28 11 -38 -6 -8 -15 -10 -15 -15 0 -4 9 -17 15 -29 15
-20 -1 -21 -2 -3 -6z"/>
<path d="M1750 470 c0 -63 2 -70 20 -70 11 0 20 7 20 15 0 8 8 15 18 15 20 0
42 18 42 35 0 5 -5 2 -11 -7 -5 -10 -21 -18 -34 -18 -16 0 -25 -6 -25 -15 0
-8 -4 -15 -10 -15 -6 0 -10 27 -10 60 0 56 2 60 23 59 12 0 16 -3 10 -6 -16
-6 -17 -59 -3 -68 15 -9 40 13 40 35 0 23 -31 50 -58 50 -21 0 -22 -5 -22 -70z
m68 14 c-5 -28 -28 -29 -28 -1 0 13 3 27 7 31 10 10 25 -10 21 -30z"/>
<path d="M1832 526 c7 -8 15 -12 17 -11 5 6 -10 25 -20 25 -5 0 -4 -6 3 -14z"/>
<path d="M1872 528 c-37 -45 8 -116 60 -95 7 3 2 6 -12 6 -15 1 -31 6 -38 13
-18 18 -15 65 6 77 9 6 12 11 6 11 -6 0 -16 -6 -22 -12z"/>
<path d="M1938 530 c15 -17 16 -40 1 -40 -5 0 -8 4 -5 9 3 5 -2 15 -12 22 -15
13 -16 12 -3 -3 12 -16 11 -18 -2 -18 -8 0 -18 6 -20 13 -3 6 -6 2 -6 -10 -1
-20 4 -23 34 -23 28 0 35 4 35 19 0 10 -8 25 -17 32 -15 11 -16 11 -5 -1z"/>
<path d="M1970 484 c0 -47 3 -55 18 -52 12 2 18 14 20 41 4 50 30 50 34 0 2
-27 8 -39 21 -41 14 -3 17 5 17 52 0 47 -3 56 -17 55 -11 0 -13 -3 -5 -6 14
-6 17 -93 2 -93 -5 0 -10 12 -10 28 0 15 -3 37 -6 49 -5 20 -7 20 -25 5 -11
-10 -19 -29 -19 -49 0 -18 -4 -33 -10 -33 -5 0 -10 20 -10 44 0 38 3 45 23 49
19 4 18 4 -5 6 -27 1 -28 0 -28 -55z"/>
<path d="M2105 530 c-3 -6 1 -7 9 -4 18 7 21 14 7 14 -6 0 -13 -4 -16 -10z"/>
<path d="M2171 523 c7 -12 15 -20 18 -17 3 2 -3 12 -13 22 -17 16 -18 16 -5
-5z"/>
<path d="M2200 484 c0 -47 3 -55 18 -52 13 2 17 14 18 48 l1 45 -4 -42 c-6
-57 -23 -55 -23 3 0 41 2 45 23 42 18 -2 23 -11 27 -48 4 -32 10 -46 23 -48
14 -3 17 4 17 36 0 47 -8 72 -23 72 -7 0 -7 -4 1 -12 14 -14 16 -88 2 -88 -5
0 -10 17 -10 38 0 43 -14 62 -47 62 -21 0 -23 -4 -23 -56z"/>
<path d="M2320 525 c-19 -22 -8 -25 13 -3 9 10 13 18 8 18 -5 0 -14 -7 -21
-15z"/>
<path d="M2385 530 c6 -10 4 -12 -11 -6 -15 6 -17 5 -6 -5 9 -9 15 -10 23 -2
8 8 7 13 -2 18 -8 6 -10 4 -4 -5z"/>
<path d="M2415 530 c-3 -6 1 -7 9 -4 18 7 21 14 7 14 -6 0 -13 -4 -16 -10z"/>
<path d="M2480 525 c7 -9 15 -13 17 -11 7 7 -7 26 -19 26 -6 0 -6 -6 2 -15z"/>
<path d="M792 510 c0 -14 2 -19 5 -12 2 6 2 18 0 25 -3 6 -5 1 -5 -13z"/>
<path d="M821 508 c0 -16 -10 -37 -21 -48 -11 -11 -16 -20 -10 -20 17 0 42 48
37 72 -4 20 -4 20 -6 -4z"/>
<path d="M1231 516 c-7 -8 -11 -25 -9 -38 2 -17 10 -23 28 -23 14 0 29 -4 33
-10 5 -6 7 -4 4 5 -2 10 -13 14 -30 12 -15 -2 -27 1 -27 7 0 6 15 12 33 12 17
1 24 3 14 6 -9 2 -15 8 -12 13 3 4 -1 13 -9 19 -10 8 -16 8 -25 -3z m24 -6 c3
-5 -1 -10 -10 -10 -9 0 -13 5 -10 10 3 6 8 10 10 10 2 0 7 -4 10 -10z"/>
<path d="M2149 518 c12 -16 11 -18 -2 -18 -8 0 -18 6 -21 13 -3 6 -4 -4 -3
-23 2 -30 6 -35 27 -35 14 0 29 -4 33 -10 5 -6 7 -4 4 5 -2 10 -13 14 -30 12
-15 -2 -27 1 -27 7 0 6 15 12 33 12 17 1 24 3 14 6 -9 2 -15 8 -12 13 3 4 -3
14 -13 21 -15 13 -16 12 -3 -3z"/>
<path d="M2441 516 c-7 -8 -11 -25 -9 -38 2 -17 10 -23 28 -23 14 0 29 -4 33
-10 5 -6 7 -4 4 5 -2 10 -13 14 -30 12 -15 -2 -27 1 -27 7 0 6 15 12 33 12 17
1 24 3 14 6 -9 2 -15 8 -12 13 3 4 -1 13 -9 19 -10 8 -16 8 -25 -3z m24 -6 c3
-5 -1 -10 -10 -10 -9 0 -13 5 -10 10 3 6 8 10 10 10 2 0 7 -4 10 -10z"/>
<path d="M600 515 c0 -5 5 -17 10 -25 5 -8 10 -10 10 -5 0 6 -5 17 -10 25 -5
8 -10 11 -10 5z"/>
<path d="M962 478 c-2 -40 1 -48 16 -48 11 0 13 3 5 8 -6 4 -13 25 -16 47 -4
40 -4 40 -5 -7z"/>
<path d="M1424 478 c1 -39 4 -43 25 -43 13 0 26 6 29 13 2 6 -4 12 -15 12 -15
0 -16 -2 -3 -10 12 -8 11 -10 -7 -10 -18 0 -23 7 -26 40 l-4 40 1 -42z"/>
<path d="M1715 500 c-6 -9 11 -50 21 -50 2 0 0 9 -6 20 -6 11 -8 25 -5 30 3 6
4 10 1 10 -3 0 -8 -4 -11 -10z"/>
<path d="M2091 489 c-1 -33 30 -62 61 -56 22 4 21 4 -3 6 -31 1 -45 16 -52 51
l-4 25 -2 -26z"/>
<path d="M2402 490 c0 -14 2 -19 5 -12 2 6 2 18 0 25 -3 6 -5 1 -5 -13z"/>
<path d="M1011 489 c-1 -8 6 -24 15 -35 15 -19 15 -19 6 1 -5 11 -12 27 -15
35 -5 13 -6 13 -6 -1z"/>
<path d="M525 459 c-4 -12 -12 -18 -21 -15 -8 3 -14 1 -14 -4 0 -18 29 -10 40
10 6 11 21 20 35 20 15 0 26 -7 30 -20 3 -11 15 -20 26 -20 21 0 24 8 8 30 -9
13 -10 12 -5 -2 7 -25 -11 -23 -24 2 -15 28 -66 27 -75 -1z"/>
<path d="M1070 459 c-25 -9 -25 -9 3 -5 15 2 27 -1 27 -5 0 -5 -12 -10 -27
-10 -26 -2 -26 -2 -4 -6 26 -5 51 12 36 25 -6 5 -21 5 -35 1z"/>
<path d="M1898 458 c5 -5 16 -8 23 -6 8 3 3 7 -10 11 -17 4 -21 3 -13 -5z"/>
<path d="M1946 457 c3 -10 9 -15 12 -12 3 3 0 11 -7 18 -10 9 -11 8 -5 -6z"/>
<path d="M2347 457 c3 -5 14 -7 24 -4 10 3 20 1 23 -4 2 -5 3 -4 2 2 -1 7 -14
13 -28 13 -15 1 -24 -2 -21 -7z"/>
<path d="M1209 448 c7 -10 25 -17 40 -17 l26 2 -25 4 c-14 3 -32 10 -40 16
-13 11 -13 10 -1 -5z"/>
<path d="M2419 448 c7 -10 25 -17 40 -17 l26 2 -25 4 c-14 3 -32 10 -40 16
-13 11 -13 10 -1 -5z"/>
<path d="M2330 440 c8 -5 24 -10 34 -10 26 0 18 6 -19 14 -22 5 -26 4 -15 -4z"/>
<path d="M848 433 c7 -3 16 -2 19 1 4 3 -2 6 -13 5 -11 0 -14 -3 -6 -6z"/>
</g>
</svg>
